<?xml version="1.0" encoding="UTF-8" standalone="no"?>
<svg
   xmlns:dc="http://purl.org/dc/elements/1.1/"
   xmlns:cc="http://creativecommons.org/ns#"
   xmlns:rdf="http://www.w3.org/1999/02/22-rdf-syntax-ns#"
   xmlns:svg="http://www.w3.org/2000/svg"
   xmlns="http://www.w3.org/2000/svg"
   id="svg833"
   version="1.1"
   viewBox="0 0 100 100"
   height="3mm"
   width="3mm">
  <defs
     id="defs827" />
  <metadata
     id="metadata830">
    <rdf:RDF>
      <cc:Work
         rdf:about="">
        <dc:format>image/svg+xml</dc:format>
        <dc:type
           rdf:resource="http://purl.org/dc/dcmitype/StillImage" />
        <dc:title></dc:title>
      </cc:Work>
    </rdf:RDF>
  </metadata>
  <g
     transform="translate(0,-197)"
     id="layer1">
    <g
       id="g8"
       data-name="Group"
       transform="matrix(2.0649585,0,0,3.1869381,0.45380485,170.43163)">
      <path
         style="fill:#dfe6e9;fill-opacity:1"
         id="path4"
         d="M 47.81,31.92 C 38.32,38.19 24.81,38.8 14.32,35 9.44,33.12 2.85,28.24 7.13,22.37 c 4.38,-6.38 15,-6.64 21.51,-4.39 3.49,1.22 7.6,4.24 5.29,8.41 a 4.91,4.91 0 0 1 -0.79,1.08 c 3.64,-2.45 3.65,-6.63 0.26,-9.29 -7.23,-5.69 -20.66,-5 -27.92,0.2 A 11.16,11.16 0 0 0 1,24.26 c -1.23,4.44 2,8.31 5.52,10.51 10.13,6.3 25.74,6.23 36.21,0.89 a 23.63,23.63 0 0 0 3.18,-2 c 0.52,-0.4 1,-0.82 1.48,-1.26 0.06,-0.06 1,-0.91 0.42,-0.52 z"
         data-name="Path" />
      <path
         style="fill:#dfe6e9;fill-opacity:1"
         id="path6"
         d="m 1.38,15.36 c 9.77,-5.63 23.26,-6.29 33.54,-1.87 4.95,2.17 10,7.54 5.43,12.84 -4.94,5.74 -15,6 -21.59,3.47 -3.69,-1.44 -7.12,-4.94 -4.19,-8.88 a 3.89,3.89 0 0 1 0.32,-0.39 c -3.64,2.45 -3.65,6.63 -0.26,9.29 7.23,5.69 20.66,5 27.92,-0.2 A 11.21,11.21 0 0 0 47,23.74 C 48.22,19.3 45,15.43 41.47,13.23 31.38,6.93 15.77,7 5.3,12.34 A 18.16,18.16 0 0 0 0,16.23 c 0.45,-0.3 0.91,-0.6 1.38,-0.87 z"
         data-name="Path" />
    </g>
  </g>
</svg>
